<svg width="19" height="19" viewBox="0 0 19 19" fill="none" xmlns="http://www.w3.org/2000/svg">
<path d="M13.5771 2.375H3.04794C2.44954 2.375 1.87566 2.64086 1.45253 3.1141C1.0294 3.58733 0.791687 4.22918 0.791687 4.89844V13.3099C0.791687 13.9792 1.0294 14.621 1.45253 15.0942C1.87566 15.5675 2.44954 15.8333 3.04794 15.8333H13.5771C14.1755 15.8333 14.7494 15.5675 15.1725 15.0942C15.5956 14.621 15.8334 13.9792 15.8334 13.3099V4.89844C15.8334 4.22918 15.5956 3.58733 15.1725 3.1141C14.7494 2.64086 14.1755 2.375 13.5771 2.375ZM13.0732 4.05729L8.31252 8.05273L3.55183 4.05729H13.0732ZM13.5771 14.151H3.04794C2.84847 14.151 2.65718 14.0624 2.51613 13.9047C2.37509 13.7469 2.29585 13.533 2.29585 13.3099V5.10872L7.86127 9.77708C7.99145 9.88628 8.14979 9.94531 8.31252 9.94531C8.47525 9.94531 8.63359 9.88628 8.76377 9.77708L14.3292 5.10872V13.3099C14.3292 13.533 14.25 13.7469 14.1089 13.9047C13.9679 14.0624 13.7766 14.151 13.5771 14.151Z" fill="#3FA1AE"/>
</svg>
